<?xml version="1.0" standalone="no"?>
<!DOCTYPE svg PUBLIC "-//W3C//DTD SVG 20010904//EN"
 "http://www.w3.org/TR/2001/REC-SVG-20010904/DTD/svg10.dtd">
<svg version="1.0" xmlns="http://www.w3.org/2000/svg"
 width="400.000000pt" height="400.000000pt" viewBox="0 0 400.000000 400.000000"
 preserveAspectRatio="xMidYMid meet">
<metadata>
Created by potrace 1.11, written by Peter Selinger 2001-2013
</metadata>
<g transform="translate(0.000000,400.000000) scale(0.100000,-0.100000)"
fill="#000000" stroke="none">
<path d="M1584 3584 l-416 -416 21 -22 c18 -19 464 -464 476 -475 2 -1 78 72
169 163 l166 166 500 -500 500 -500 -166 -166 c-120 -120 -163 -168 -156 -177
8 -9 472 -472 487 -485 2 -2 191 183 419 412 l416 416 -1000 1000 -1000 1000
-416 -416z"/>
<path d="M413 2414 l-413 -414 1000 -1000 1000 -1000 416 416 c229 228 414
417 412 419 -1 3 -114 116 -249 252 l-246 248 -159 -162 c-87 -89 -165 -162
-172 -162 -6 -1 -235 222 -507 494 l-495 495 166 166 166 166 -63 65 c-177
179 -430 428 -437 430 -4 1 -193 -185 -419 -413z"/>
</g>
</svg>
